<svg width="62" height="64" viewBox="0 0 62 64" fill="none" xmlns="http://www.w3.org/2000/svg">
<path d="M58.2192 21.8087C58.6175 21.3867 58.6175 20.7121 58.2192 20.2901C58.0271 20.0817 57.76 19.9655 57.4821 19.9701H46.7773L55.431 2.65698C55.7057 2.12941 55.5163 1.47039 55.0078 1.18493C54.4987 0.899924 53.8634 1.09638 53.5887 1.62396L44.4073 19.9701H29.2814C29.0457 16.4823 27.5187 13.2246 25.0203 10.8782C22.522 8.53185 19.2451 7.27843 15.8763 7.38079C12.5074 7.48317 9.30749 8.93301 6.94556 11.427C6.95623 11.4496 6.95623 11.4763 6.94556 11.4994C4.62324 13.9611 3.29672 17.2505 3.23754 20.6945C3.17797 24.138 4.39073 27.475 6.62679 30.021C6.70148 30.3688 6.95354 30.6464 7.28429 30.7441C9.59591 33.0232 12.6336 34.3439 15.8211 34.4565C19.0086 34.5685 22.1254 33.465 24.5811 31.3538L35.6842 42.8819V60.8868H26.3437C25.7689 60.8868 25.303 61.3701 25.303 61.9664C25.303 62.5626 25.7689 63.0459 26.3437 63.0459H47.7734C48.3482 63.0459 48.8141 62.5626 48.8141 61.9664C48.8141 61.3701 48.3482 60.8868 47.7734 60.8868H37.8154V43.0259L58.2192 21.8087ZM17.0032 9.52602C19.6261 9.71648 22.0969 10.874 23.9689 12.7892C25.8409 14.705 26.9906 17.2519 27.2101 19.97H17.0031L17.0032 9.52602ZM14.912 9.57767V18.3066L9.08653 12.2534C10.73 10.7828 12.7577 9.85121 14.912 9.57779V9.57767ZM5.22293 20.9407C5.22248 18.3434 6.08003 15.8241 7.65246 13.8028L14.5636 21.0338L7.71255 28.0998C6.11483 26.0703 5.24216 23.5302 5.24307 20.9099L5.22293 20.9407ZM16.2266 32.3037C13.6344 32.306 11.1258 31.3542 9.14616 29.6179L16.0172 22.4902L23.0776 29.8037V29.8042C21.1425 31.4243 18.7334 32.3134 16.2466 32.3245L16.2266 32.3037ZM36.9393 40.7642H36.5908L18.6265 22.1288H54.9829L36.9393 40.7642Z" fill="white"/>
</svg>
