<svg width="88" height="88" viewBox="0 0 88 88" fill="none" xmlns="http://www.w3.org/2000/svg">
<path d="M44.0488 82.7756C43.5113 82.7756 43.0415 82.4133 42.9045 81.894L35.2463 52.8621L6.21438 45.1937C5.69505 45.0566 5.33274 44.5868 5.33334 44.0494C5.33334 43.5119 5.69567 43.0421 6.21498 42.9051L35.2469 35.2469L42.9051 6.21498C43.0422 5.69565 43.512 5.33334 44.0494 5.33334C44.5868 5.33334 45.0566 5.69505 45.1937 6.21438L52.8621 35.2463L81.894 42.9045C82.4133 43.0415 82.7756 43.5114 82.7756 44.0488C82.7756 44.5862 82.4139 45.056 81.8946 45.1931L52.8627 52.8615L45.1943 81.8934C45.0566 82.4133 44.5868 82.775 44.0494 82.775L44.0488 82.7756ZM11.1537 44.051L36.5172 50.7503C36.929 50.859 37.2509 51.1808 37.3596 51.5927L44.0497 76.9546L50.749 51.5911C50.8577 51.1793 51.1796 50.858 51.5908 50.7493L76.9543 44.0501L51.5924 37.3599C51.1805 37.2512 50.8587 36.9293 50.75 36.5175L44.0507 11.154L37.3605 36.516C37.2518 36.9278 36.93 37.2496 36.5181 37.3583L11.1537 44.051Z" fill="white"/>
<path d="M62.8159 64.0008C62.6118 64.0008 62.4065 63.9482 62.2205 63.8401L50.2556 56.8722C49.7955 56.604 49.5708 56.0624 49.7067 55.5473L50.7502 51.5938C50.8589 51.182 51.1807 50.8601 51.5926 50.7514L55.546 49.7079C56.0611 49.5727 56.6028 49.7967 56.8709 50.2569L63.7973 62.15C63.9271 62.3403 64.0032 62.5697 64.0032 62.8173C64.0032 63.4689 63.4766 63.9973 62.8257 64.0009H62.816L62.8159 64.0008ZM52.226 55.2798L59.5363 59.5376L55.2785 52.2272L52.863 52.8649L52.226 55.2798ZM25.2857 64.0008C24.9795 64.0008 24.6764 63.8818 24.4481 63.6541C24.0683 63.2743 23.9922 62.6855 24.2627 62.2218L31.2307 50.2569C31.4982 49.7967 32.0393 49.5715 32.5549 49.7079L36.5188 50.7514C36.9312 50.8601 37.2531 51.182 37.3618 51.5938L38.4046 55.5473C38.5405 56.0624 38.3159 56.6046 37.8557 56.8722L25.8805 63.8401C25.6945 63.9482 25.4892 64.0008 25.2856 64.0008H25.2857ZM32.8225 52.226L28.5628 59.5399L35.8859 55.2791L35.2488 52.8643L32.8225 52.226ZM55.8486 38.444C55.7484 38.444 55.6469 38.4314 55.5467 38.4048L51.5932 37.3619C51.1808 37.2532 50.8589 36.9314 50.7508 36.5189L49.7073 32.5551C49.5721 32.0406 49.7967 31.4989 50.2563 31.2308L62.2212 24.2629C62.6849 23.9923 63.2737 24.0684 63.6535 24.4482C64.0334 24.8281 64.11 25.4162 63.8395 25.8806L56.8716 37.8559C56.656 38.226 56.2623 38.444 55.8486 38.444V38.444ZM52.8643 35.249L55.2791 35.8861L59.5399 28.563L52.226 32.8227L52.8643 35.249ZM32.2529 38.444C31.8392 38.444 31.4455 38.226 31.2299 37.8559L24.2619 25.8806C23.992 25.4162 24.0681 24.8281 24.4479 24.4483C24.8278 24.0684 25.4159 23.9917 25.8803 24.2623L37.8556 31.2302C38.3157 31.4977 38.5403 32.04 38.4051 32.5545L37.3622 36.5183C37.2535 36.9308 36.9316 37.2532 36.5186 37.3619L32.5548 38.4048C32.4539 38.4314 32.3531 38.444 32.2529 38.444V38.444ZM28.5602 28.5605L32.8228 35.8867L35.248 35.2484L35.8863 32.8232L28.5602 28.5605Z" fill="white"/>
<path d="M17.6758 79.7302C15.1583 79.7302 13.1107 77.6825 13.1107 75.165C13.1107 72.6475 15.1583 70.5999 17.6758 70.5999C20.1933 70.5999 22.241 72.6475 22.241 75.165C22.241 77.6819 20.1933 79.7302 17.6758 79.7302ZM17.6758 72.9669C16.4639 72.9669 15.4777 73.953 15.4777 75.165C15.4777 76.377 16.4638 77.3631 17.6758 77.3631C18.8878 77.3631 19.8739 76.377 19.8739 75.165C19.8739 73.953 18.8878 72.9669 17.6758 72.9669Z" fill="white"/>
<path d="M75.163 25.6239C71.7132 25.6239 68.9069 22.8178 68.9069 19.3679C68.9069 15.9179 71.713 13.1118 75.163 13.1118C78.613 13.1118 81.4191 15.9179 81.4191 19.3679C81.4191 22.8178 78.613 25.6239 75.163 25.6239ZM75.163 15.479C73.0187 15.479 71.2741 17.2236 71.2741 19.3679C71.2741 21.5122 73.0187 23.2567 75.163 23.2567C77.3073 23.2567 79.0518 21.5122 79.0518 19.3679C79.0518 17.2236 77.3073 15.479 75.163 15.479Z" fill="white"/>
<path d="M75.163 72.9669C71.7132 72.9669 68.9069 70.1608 68.9069 66.7108C68.9069 63.2609 71.713 60.4548 75.163 60.4548C78.613 60.4548 81.4191 63.2609 81.4191 66.7108C81.4191 70.16 78.613 72.9669 75.163 72.9669ZM75.163 62.822C73.0187 62.822 71.2741 64.5665 71.2741 66.7108C71.2741 68.8552 73.0187 70.5997 75.163 70.5997C77.3073 70.5997 79.0518 68.8552 79.0518 66.7108C79.0518 64.5665 77.3073 62.822 75.163 62.822Z" fill="white"/>
<path d="M14.2934 22.2415C9.91173 22.2415 6.34659 18.6764 6.34659 14.2947C6.34659 9.91301 9.91173 6.34787 14.2934 6.34787C18.6751 6.34787 22.2402 9.91301 22.2402 14.2947C22.2402 18.677 18.6756 22.2415 14.2934 22.2415ZM14.2934 8.71494C11.2168 8.71494 8.71366 11.2179 8.71366 14.2947C8.71366 17.3715 11.2166 19.8744 14.2934 19.8744C17.3702 19.8744 19.8732 17.3715 19.8732 14.2947C19.8732 11.2179 17.3702 8.71494 14.2934 8.71494V8.71494Z" fill="white"/>
</svg>
