<svg width="64" height="64" viewBox="0 0 64 64" fill="none" xmlns="http://www.w3.org/2000/svg">
<g clip-path="url(#clip0_39_68)">
<path d="M62.9968 30.9821H47.5058V16.5239H48.5385C48.8123 16.5239 49.0751 16.4151 49.2688 16.2214C49.4624 16.0278 49.5712 15.765 49.5712 15.4911V11.3602C49.5712 11.0863 49.4624 10.8235 49.2688 10.6299C49.0751 10.4363 48.8123 10.3275 48.5385 10.3275H47.5058V8.26199C47.5058 7.87056 47.2849 7.51325 46.935 7.33806L32.4767 0.108924C32.1858 -0.036308 31.8437 -0.036308 31.5528 0.108924L24.3237 3.72349C23.8133 3.97845 23.6067 4.59902 23.8617 5.10936C24.1166 5.61927 24.7372 5.82628 25.2476 5.57133L32.0147 2.18727L45.4403 8.90004V10.3275H18.5892V8.90004L21.1166 7.63633C21.627 7.38137 21.8335 6.76081 21.5786 6.25046C21.3236 5.74055 20.7031 5.53354 20.1927 5.78849L17.0945 7.33759C16.7446 7.51279 16.5233 7.87055 16.5237 8.26198V10.3274H15.491C14.9207 10.3274 14.4583 10.7899 14.4583 11.3602V15.4911C14.4583 15.765 14.5671 16.0278 14.7607 16.2214C14.9544 16.415 15.2172 16.5238 15.491 16.5238H16.5237V30.9821H8.26187C7.69157 30.9821 7.22914 31.4446 7.22914 32.0149C7.22914 32.5852 7.69157 33.0476 8.26187 33.0476H16.5237V35.1131H2.06547V33.0476H4.13094C4.70124 33.0476 5.16367 32.5852 5.16367 32.0149C5.16367 31.4446 4.70124 30.9821 4.13094 30.9821H1.03273C0.462429 30.9821 0 31.4446 0 32.0149V36.1458C0 36.4197 0.108806 36.6824 0.302444 36.8761C0.496081 37.0697 0.758877 37.1785 1.03273 37.1785H2.06547V62.9969C2.06547 63.2707 2.17427 63.5335 2.36791 63.7272C2.56155 63.9208 2.82434 64.0296 3.0982 64.0296H60.9313C61.2052 64.0296 61.468 63.9208 61.6616 63.7272C61.8552 63.5335 61.964 63.2707 61.964 62.9969V37.1785H62.9968C63.2706 37.1785 63.5334 37.0697 63.7271 36.8761C63.9207 36.6824 64.0295 36.4197 64.0295 36.1458V32.0149C64.0295 31.741 63.9207 31.4782 63.7271 31.2846C63.5334 31.0909 63.2706 30.9821 62.9968 30.9821L62.9968 30.9821ZM16.5237 12.3929H47.5058V14.4584H16.5237V12.3929ZM45.4403 16.5239V61.9642H39.2439V59.8987C39.2439 59.3284 38.7815 58.866 38.2111 58.866C37.6408 58.866 37.1784 59.3284 37.1784 59.8987V61.9642H33.0475V51.6368H37.1784V55.7677C37.1784 56.3381 37.6408 56.8005 38.2111 56.8005C38.7815 56.8005 39.2439 56.3381 39.2439 55.7677V51.6368H41.3094C41.8797 51.6368 42.3421 51.1744 42.3421 50.6041C42.3421 50.0338 41.8797 49.5713 41.3094 49.5713H22.7201C22.1498 49.5713 21.6874 50.0338 21.6874 50.6041C21.6874 51.1744 22.1498 51.6368 22.7201 51.6368H24.7856V61.9642H18.5892V16.5239H45.4403ZM30.982 51.6368V61.9642H26.8511V51.6368H30.982ZM16.5237 37.1785V55.7677H4.13092V37.1785H16.5237ZM4.13092 57.8332H16.5237V61.9642H4.13092V57.8332ZM47.5058 61.9642V57.8332H59.8986V61.9642H47.5058ZM59.8986 55.7677H47.5058V37.1785H59.8986V55.7677ZM61.964 35.1131H47.5058V33.0476H61.964V35.1131Z" fill="white"/>
<path d="M21.6874 26.8512H25.8183C26.0922 26.8512 26.355 26.7424 26.5486 26.5488C26.7423 26.3551 26.8511 26.0924 26.8511 25.8185V19.6221C26.8511 19.3482 26.7423 19.0854 26.5486 18.8918C26.355 18.6982 26.0922 18.5894 25.8183 18.5894H21.6874C21.1171 18.5894 20.6547 19.0518 20.6547 19.6221V25.8185C20.6547 26.0924 20.7635 26.3551 20.9571 26.5488C21.1507 26.7424 21.4135 26.8512 21.6874 26.8512ZM22.7201 20.6548H24.7856V24.7858H22.7201V20.6548Z" fill="white"/>
<path d="M29.9493 26.8512H34.0802C34.3541 26.8512 34.6169 26.7424 34.8105 26.5488C35.0041 26.3551 35.1129 26.0924 35.1129 25.8185V19.6221C35.1129 19.3482 35.0041 19.0854 34.8105 18.8918C34.6169 18.6982 34.3541 18.5894 34.0802 18.5894H29.9493C29.379 18.5894 28.9165 19.0518 28.9165 19.6221V25.8185C28.9165 26.0924 29.0253 26.3551 29.219 26.5488C29.4126 26.7424 29.6754 26.8512 29.9493 26.8512ZM30.982 20.6548H33.0475V24.7858H30.982V20.6548Z" fill="white"/>
<path d="M38.2111 26.8512H42.3421C42.6159 26.8512 42.8787 26.7424 43.0724 26.5488C43.266 26.3551 43.3748 26.0924 43.3748 25.8185V19.6221C43.3748 19.3482 43.266 19.0854 43.0724 18.8918C42.8787 18.6982 42.6159 18.5894 42.3421 18.5894H38.2111C37.6408 18.5894 37.1784 19.0518 37.1784 19.6221V25.8185C37.1784 26.0924 37.2872 26.3551 37.4808 26.5488C37.6745 26.7424 37.9373 26.8512 38.2111 26.8512ZM39.2439 20.6548H41.3093V24.7858H39.2439V20.6548Z" fill="white"/>
<path d="M21.6874 37.1785H25.8183C26.0922 37.1785 26.355 37.0697 26.5486 36.8761C26.7423 36.6824 26.8511 36.4196 26.8511 36.1458V29.9494C26.8511 29.6755 26.7423 29.4127 26.5486 29.2191C26.355 29.0254 26.0922 28.9166 25.8183 28.9166H21.6874C21.1171 28.9166 20.6547 29.3791 20.6547 29.9494V36.1458C20.6547 36.4196 20.7635 36.6824 20.9571 36.8761C21.1507 37.0697 21.4135 37.1785 21.6874 37.1785ZM22.7201 30.9821H24.7856V35.113H22.7201V30.9821Z" fill="white"/>
<path d="M29.9493 37.1785H34.0802C34.3541 37.1785 34.6169 37.0697 34.8105 36.8761C35.0041 36.6824 35.1129 36.4196 35.1129 36.1458V29.9494C35.1129 29.6755 35.0041 29.4127 34.8105 29.2191C34.6169 29.0254 34.3541 28.9166 34.0802 28.9166H29.9493C29.379 28.9166 28.9165 29.3791 28.9165 29.9494V36.1458C28.9165 36.4196 29.0253 36.6824 29.219 36.8761C29.4126 37.0697 29.6754 37.1785 29.9493 37.1785ZM30.982 30.9821H33.0475V35.113H30.982V30.9821Z" fill="white"/>
<path d="M38.2111 37.1785H42.3421C42.6159 37.1785 42.8787 37.0697 43.0724 36.8761C43.266 36.6824 43.3748 36.4196 43.3748 36.1458V29.9494C43.3748 29.6755 43.266 29.4127 43.0724 29.2191C42.8787 29.0254 42.6159 28.9166 42.3421 28.9166H38.2111C37.6408 28.9166 37.1784 29.3791 37.1784 29.9494V36.1458C37.1784 36.4196 37.2872 36.6824 37.4808 36.8761C37.6745 37.0697 37.9373 37.1785 38.2111 37.1785ZM39.2439 30.9821H41.3093V35.113H39.2439V30.9821Z" fill="white"/>
<path d="M21.6874 47.5059H25.8183C26.0922 47.5059 26.355 47.3971 26.5486 47.2034C26.7423 47.0098 26.8511 46.747 26.8511 46.4732V40.2768C26.8511 40.0029 26.7423 39.7401 26.5486 39.5465C26.355 39.3528 26.0922 39.244 25.8183 39.244H21.6874C21.1171 39.244 20.6547 39.7064 20.6547 40.2768V46.4732C20.6547 46.747 20.7635 47.0098 20.9571 47.2034C21.1507 47.3971 21.4135 47.5059 21.6874 47.5059ZM22.7201 41.3095H24.7856V45.4404H22.7201V41.3095Z" fill="white"/>
<path d="M29.9493 47.5059H34.0802C34.3541 47.5059 34.6169 47.3971 34.8105 47.2034C35.0041 47.0098 35.1129 46.747 35.1129 46.4732V40.2768C35.1129 40.0029 35.0041 39.7401 34.8105 39.5465C34.6169 39.3528 34.3541 39.244 34.0802 39.244H29.9493C29.379 39.244 28.9165 39.7064 28.9165 40.2768V46.4732C28.9165 46.747 29.0253 47.0098 29.219 47.2034C29.4126 47.3971 29.6754 47.5059 29.9493 47.5059ZM30.982 41.3095H33.0475V45.4404H30.982V41.3095Z" fill="white"/>
<path d="M38.2111 47.5059H42.3421C42.6159 47.5059 42.8787 47.3971 43.0724 47.2034C43.266 47.0098 43.3748 46.747 43.3748 46.4732V40.2768C43.3748 40.0029 43.266 39.7401 43.0724 39.5465C42.8787 39.3528 42.6159 39.244 42.3421 39.244H38.2111C37.6408 39.244 37.1784 39.7064 37.1784 40.2768V46.4732C37.1784 46.747 37.2872 47.0098 37.4808 47.2034C37.6745 47.3971 37.9373 47.5059 38.2111 47.5059ZM39.2439 41.3095H41.3093V45.4404H39.2439V41.3095Z" fill="white"/>
<path d="M7.22911 41.3095H13.4255C13.9958 41.3095 14.4583 40.8471 14.4583 40.2768C14.4583 39.7064 13.9958 39.244 13.4255 39.244H7.22911C6.65881 39.244 6.19638 39.7064 6.19638 40.2768C6.19638 40.8471 6.65881 41.3095 7.22911 41.3095Z" fill="white"/>
<path d="M7.22911 45.4405H13.4255C13.9958 45.4405 14.4583 44.978 14.4583 44.4077C14.4583 43.8374 13.9958 43.375 13.4255 43.375H7.22911C6.65881 43.375 6.19638 43.8374 6.19638 44.4077C6.19638 44.978 6.65881 45.4405 7.22911 45.4405Z" fill="white"/>
<path d="M7.22911 49.5713H13.4255C13.9958 49.5713 14.4583 49.1089 14.4583 48.5386C14.4583 47.9683 13.9958 47.5059 13.4255 47.5059H7.22911C6.65881 47.5059 6.19638 47.9683 6.19638 48.5386C6.19638 49.1089 6.65881 49.5713 7.22911 49.5713Z" fill="white"/>
<path d="M13.4255 51.6368H7.22911C6.65881 51.6368 6.19638 52.0993 6.19638 52.6696C6.19638 53.2399 6.65881 53.7023 7.22911 53.7023H13.4255C13.9958 53.7023 14.4583 53.2399 14.4583 52.6696C14.4583 52.0993 13.9958 51.6368 13.4255 51.6368Z" fill="white"/>
<path d="M50.604 41.3095H56.8004C57.3707 41.3095 57.8331 40.8471 57.8331 40.2768C57.8331 39.7064 57.3707 39.244 56.8004 39.244H50.604C50.0337 39.244 49.5712 39.7064 49.5712 40.2768C49.5712 40.8471 50.0337 41.3095 50.604 41.3095Z" fill="white"/>
<path d="M50.604 45.4405H56.8004C57.3707 45.4405 57.8331 44.978 57.8331 44.4077C57.8331 43.8374 57.3707 43.375 56.8004 43.375H50.604C50.0337 43.375 49.5712 43.8374 49.5712 44.4077C49.5712 44.978 50.0337 45.4405 50.604 45.4405Z" fill="white"/>
<path d="M50.604 49.5713H56.8004C57.3707 49.5713 57.8331 49.1089 57.8331 48.5386C57.8331 47.9683 57.3707 47.5059 56.8004 47.5059H50.604C50.0337 47.5059 49.5712 47.9683 49.5712 48.5386C49.5712 49.1089 50.0337 49.5713 50.604 49.5713Z" fill="white"/>
<path d="M56.8004 51.6368H50.604C50.0337 51.6368 49.5712 52.0993 49.5712 52.6696C49.5712 53.2399 50.0337 53.7023 50.604 53.7023H56.8004C57.3707 53.7023 57.8331 53.2399 57.8331 52.6696C57.8331 52.0993 57.3707 51.6368 56.8004 51.6368Z" fill="white"/>
</g>
<defs>
<clipPath id="clip0_39_68">
<rect width="64" height="64" fill="white"/>
</clipPath>
</defs>
</svg>
