<svg width="64" height="64" viewBox="0 0 64 64" fill="none" xmlns="http://www.w3.org/2000/svg">
<g clip-path="url(#clip0_39_34)">
<path d="M13.4779 26.2373C14.7763 26.2373 15.9745 26.4368 17.1731 26.7366C16.7736 25.4382 16.5741 24.0401 16.5741 22.5421C16.4738 14.0533 23.4646 7.06201 31.9529 7.06201C40.4412 7.06201 47.433 14.0529 47.433 22.5421C47.433 24.0401 47.2334 25.3384 46.8339 26.7366C48.0325 26.4368 49.2306 26.2373 50.5291 26.2373C57.919 26.2373 63.9117 32.229 63.9117 39.6199C63.9117 47.2097 57.7201 53.1026 50.4291 53.1026C43.1389 53.1026 36.9464 47.2102 36.9464 39.6199C36.9464 38.721 37.0462 37.9219 37.2462 37.0232C36.4471 37.3229 35.6485 37.5225 34.8494 37.722V41.4173H34.9492C35.5483 41.4173 35.9478 41.8168 35.9478 42.4159V53.0017C35.9478 55.1989 34.1502 57.0964 31.8531 57.0964C25.5616 57.0964 28.4577 47.9084 27.7584 42.5156C27.7584 41.9165 28.1579 41.5169 28.757 41.5169H28.8568V37.8217C28.0577 37.6222 27.1588 37.4222 26.46 37.1229C26.6596 38.0217 26.7598 38.8208 26.7598 39.7196C26.7598 47.2097 20.6678 53.2023 13.2772 53.2023C5.88776 53.1025 -0.00423813 47.0106 -0.00423813 39.6207C-0.00423813 32.2309 5.98793 26.2381 13.4784 26.2381L13.4779 26.2373ZM31.9535 9.05997C24.5631 9.05997 18.4708 15.0521 18.4708 22.5426C18.4708 26.1381 19.869 29.4337 22.2657 31.8304C22.765 29.1339 26.1605 27.7357 27.5586 27.3361C26.2603 25.5385 25.5613 23.1416 25.5613 21.344C25.5613 17.7485 28.4574 14.9522 31.9531 14.9522C35.5485 14.9522 38.3449 17.8482 38.3449 21.344C38.3449 23.1416 37.5458 25.5385 36.3476 27.3361C37.8456 27.8354 41.1412 29.1338 41.6405 31.8304C43.9376 29.4337 45.4354 26.1381 45.4354 22.5426C45.4354 15.1523 39.3434 9.05997 31.9528 9.05997H31.9535ZM31.9535 28.1346C34.2505 28.1346 36.3475 23.8404 36.3475 21.3438C36.3475 18.9471 34.3502 16.9498 31.9535 16.9498C29.5567 16.9498 27.5594 18.9471 27.5594 21.3438C27.5594 23.8404 29.6564 28.1346 31.9535 28.1346ZM50.429 51.104C53.5251 51.104 56.3214 49.9053 58.5183 47.8084C58.1187 46.1104 55.2226 44.9123 53.425 44.5127C52.5261 45.2116 51.5275 45.7114 50.4291 45.7114C49.3307 45.7114 48.3322 45.2121 47.4333 44.5127C45.6356 44.9123 42.7395 46.0107 42.34 47.8084C44.6371 49.9053 47.4333 51.104 50.4292 51.104H50.429ZM55.1228 36.5232C55.1228 33.9265 53.0259 31.9292 50.5288 31.9292C48.0323 31.9292 45.9348 34.0261 45.9348 36.5232C45.9348 39.2197 48.2319 43.6137 50.5288 43.6137C52.8258 43.6137 55.1228 39.1194 55.1228 36.5232ZM41.0411 46.0105C42.2397 44.113 44.836 43.1144 46.0346 42.7148C44.7363 40.8174 43.9377 38.4206 43.9377 36.4234C43.9377 32.7281 46.9335 29.8321 50.5289 29.8321C54.1244 29.8321 57.1202 32.8279 57.1202 36.4234C57.1202 38.3208 56.3211 40.8174 55.0232 42.7148C56.2219 43.1144 58.8182 44.113 60.0168 46.0105C61.3152 44.113 62.0141 41.9158 62.0141 39.6187C62.0141 33.3272 56.9208 28.1341 50.5295 28.1341C48.9319 28.1341 47.4334 28.4339 45.9355 29.1328C44.5374 31.9291 42.4404 34.3259 39.7439 35.9235C39.3443 37.1222 39.1448 38.3203 39.1448 39.6188C39.0441 41.9158 39.7434 44.1131 41.0413 46.0105L41.0411 46.0105ZM29.956 52.9011C29.956 53.9994 30.8548 54.998 32.0529 54.998C33.2516 54.998 34.1499 54.0992 34.1499 52.9011V43.3139H29.9558L29.956 52.9011ZM32.852 41.4165V38.021H31.9532H31.0543V41.4165H32.852ZM31.9532 36.0234C34.8492 36.0234 37.5458 35.1246 39.7431 33.5269V32.5282C39.7431 30.7306 36.647 29.3324 34.8498 28.9328C33.9509 29.6317 33.0521 30.1315 31.9537 30.1315C30.9551 30.1315 29.9565 29.7319 29.0577 29.0331C27.1602 29.4326 24.1644 30.6308 24.1644 32.5282V33.5269C26.3607 35.0248 29.0572 36.0234 31.9534 36.0234H31.9532ZM13.4776 51.1033C16.5737 51.1033 19.37 49.9046 21.5668 47.8077C21.1673 46.1097 18.2712 44.8118 16.4736 44.512C15.5747 45.2109 14.5761 45.7107 13.4777 45.7107C12.3793 45.7107 11.3808 45.2114 10.4819 44.512C1.49339 46.3093 7.08595 51.1033 13.4777 51.1033H13.4776ZM18.0716 36.5225C18.0716 33.9257 15.9746 31.9285 13.4776 31.9285C10.8809 31.9285 8.88361 34.0254 8.88361 36.5225C8.88361 39.219 11.1807 43.613 13.4776 43.613C15.7745 43.613 18.0716 39.1187 18.0716 36.5225ZM3.98983 46.0098C5.1885 44.1123 7.78475 43.1137 8.98342 42.7141C7.68506 40.8167 6.88646 38.4199 6.88646 36.4227C6.88646 32.7274 9.8823 29.8314 13.4777 29.8314C17.0731 29.8314 20.069 32.8272 20.069 36.4227C20.069 38.3201 19.2699 40.8167 17.972 42.7141C19.1707 43.1137 21.7669 44.1123 22.9656 46.0098C24.264 44.1123 24.9629 41.9151 24.9629 39.618C24.9629 38.3197 24.7633 37.1215 24.3638 35.9228C21.7671 34.4248 19.5702 32.1279 18.1721 29.132C16.774 28.5329 15.1763 28.1334 13.5781 28.1334C7.28666 28.1334 2.09357 33.2267 2.09357 39.618C1.99242 41.915 2.69172 44.1123 3.99009 46.0097L3.98983 46.0098Z" fill="white"/>
</g>
<defs>
<clipPath id="clip0_39_34">
<rect width="64" height="64" fill="white" transform="matrix(-1 0 0 1 64 0)"/>
</clipPath>
</defs>
</svg>
