<svg width="64" height="64" viewBox="0 0 64 64" fill="none" xmlns="http://www.w3.org/2000/svg">
<g clip-path="url(#clip0_39_112)">
<path d="M1.16766 54.0848C0.90331 54.0848 0.649634 53.9797 0.462721 53.7928C0.275808 53.6059 0.170776 53.3522 0.170776 53.0879C0.172557 51.237 0.908653 49.4627 2.21752 48.1542C3.52589 46.8453 5.30035 46.1092 7.15079 46.1074C7.70175 46.1074 8.14768 46.5538 8.14768 47.1043C8.14768 47.6548 7.70175 48.1012 7.15079 48.1012C5.82898 48.103 4.56151 48.6286 3.62695 49.5636C2.69193 50.4982 2.16637 51.7656 2.16455 53.0879C2.16455 53.3522 2.05952 53.6059 1.8726 53.7928C1.68569 53.9797 1.43201 54.0848 1.16766 54.0848Z" fill="white"/>
<path d="M41.0431 54.0848C40.7787 54.0848 40.525 53.9798 40.3381 53.7929C40.1512 53.606 40.0462 53.3523 40.0462 53.0879C40.0449 51.7661 39.5188 50.4991 38.5847 49.565C37.6501 48.6304 36.3831 48.1049 35.0618 48.1035C34.5113 48.1035 34.0649 47.6571 34.0649 47.1066C34.0649 46.5557 34.5113 46.1097 35.0618 46.1097C36.9118 46.112 38.6853 46.8476 39.9937 48.156C41.3016 49.4639 42.0377 51.2375 42.04 53.0879C42.04 53.3523 41.9349 53.606 41.748 53.7929C41.5611 53.9798 41.3074 54.0848 41.0431 54.0848Z" fill="white"/>
<path d="M15.1241 48.1035L7.15082 48.1018V48.1013C6.60031 48.1013 6.15393 47.6549 6.15393 47.1044C6.15393 46.5539 6.60031 46.1075 7.15082 46.1075L15.1241 46.1098C15.6746 46.1098 16.121 46.5557 16.121 47.1067C16.121 47.6572 15.6746 48.1035 15.1241 48.1035Z" fill="white"/>
<path d="M35.0617 48.1035L27.0867 48.1018V48.1013C26.5362 48.1013 26.0898 47.6549 26.0898 47.1044C26.0898 46.5539 26.5362 46.1075 27.0867 46.1075L35.0617 46.1093V46.1098C35.6123 46.1098 36.0586 46.5557 36.0586 47.1067C36.0586 47.6572 35.6123 48.1035 35.0617 48.1035Z" fill="white"/>
<path d="M1.1695 64.0503C0.618994 64.0503 0.172618 63.6039 0.172618 63.0534L0.170837 53.0886C0.170837 52.5376 0.617214 52.0917 1.16772 52.0917C1.71823 52.0917 2.16461 52.5376 2.16461 53.0886L2.16639 63.0534C2.16639 63.3178 2.06136 63.5714 1.87444 63.7584C1.68753 63.9453 1.43385 64.0503 1.1695 64.0503Z" fill="white"/>
<path d="M41.043 64.0503C40.7787 64.0503 40.525 63.9453 40.3381 63.7584C40.1512 63.5714 40.0461 63.3178 40.0461 63.0534V53.0886C40.0461 52.5376 40.4925 52.0917 41.043 52.0917C41.5935 52.0917 42.0399 52.5376 42.0399 53.0886V63.0534C42.0399 63.3178 41.9349 63.5714 41.748 63.7584C41.5611 63.9453 41.3074 64.0503 41.043 64.0503Z" fill="white"/>
<path d="M15.124 48.1034C14.8597 48.1034 14.606 47.9984 14.4191 47.8115C14.2322 47.6246 14.1271 47.3709 14.1271 47.1066V41.8729C14.1271 41.3219 14.5735 40.876 15.124 40.876C15.6745 40.876 16.1209 41.3219 16.1209 41.8729V47.1066C16.1209 47.3709 16.0159 47.6246 15.829 47.8115C15.642 47.9984 15.3884 48.1034 15.124 48.1034Z" fill="white"/>
<path d="M27.0867 48.1012C26.8223 48.1016 26.5686 47.9966 26.3817 47.8092C26.1948 47.6223 26.0898 47.3686 26.0898 47.1043V41.8724V41.8729C26.0898 41.3224 26.5362 40.876 27.0867 40.876C27.6372 40.876 28.0836 41.3224 28.0836 41.8729V47.1047V47.1043C28.0836 47.3686 27.9785 47.6223 27.7916 47.8092C27.6047 47.9966 27.351 48.1016 27.0867 48.1012Z" fill="white"/>
<path d="M21.1054 44.1137C16.8766 44.1088 12.8228 42.427 9.83259 39.4368C6.8424 36.447 5.16011 32.3927 5.15521 28.164C5.15521 27.6135 5.60159 27.1671 6.1521 27.1671C6.70261 27.1671 7.14898 27.6135 7.14898 28.164C7.14898 33.1502 9.80901 37.7577 14.1272 40.2508C18.4453 42.7439 23.7654 42.7439 28.0836 40.2508C32.4017 37.7577 35.0618 33.1502 35.0618 28.164C35.0618 27.6135 35.5081 27.1671 36.0586 27.1671C36.6091 27.1671 37.0555 27.6135 37.0555 28.164C37.0506 32.3927 35.3683 36.447 32.3781 39.4368C29.3879 42.427 25.3341 44.1088 21.1054 44.1137Z" fill="white"/>
<path d="M37.0555 22.1823C36.7912 22.1823 36.5375 22.0772 36.3506 21.8903C36.1637 21.7034 36.0586 21.4497 36.0586 21.1854C36.0586 15.8431 33.2086 10.9068 28.582 8.23613C23.9554 5.56505 18.2553 5.56505 13.6287 8.23613C9.00216 10.9072 6.15209 15.8436 6.15209 21.1854C6.15209 21.7359 5.70572 22.1823 5.15521 22.1823C4.6047 22.1823 4.15833 21.7359 4.15833 21.1854C4.15833 15.1306 7.38846 9.53607 12.6318 6.50896C17.8752 3.48139 24.3358 3.48139 29.5789 6.50896C34.8223 9.53607 38.0524 15.1307 38.0524 21.1854C38.0524 21.4497 37.9474 21.7034 37.7605 21.8903C37.5736 22.0772 37.3199 22.1823 37.0555 22.1823Z" fill="white"/>
<path d="M37.0555 29.1604C36.7911 29.1604 36.5375 29.0554 36.3505 28.8685C36.1636 28.6816 36.0586 28.4279 36.0586 28.1636V21.1854C36.0586 20.6349 36.505 20.1885 37.0555 20.1885C37.606 20.1885 38.0524 20.6349 38.0524 21.1854V28.1636C38.0524 28.4279 37.9473 28.6816 37.7604 28.8685C37.5735 29.0554 37.3198 29.1604 37.0555 29.1604Z" fill="white"/>
<path d="M5.15521 29.1616C4.89086 29.1616 4.63718 29.0566 4.45027 28.8697C4.26336 28.6827 4.15833 28.4291 4.15833 28.1647V21.1856C4.15833 20.6351 4.6047 20.1887 5.15521 20.1887C5.70572 20.1887 6.15209 20.6351 6.15209 21.1856V28.1647C6.15209 28.4291 6.04707 28.6827 5.86015 28.8697C5.67323 29.0566 5.41956 29.1616 5.15521 29.1616Z" fill="white"/>
<path d="M29.0804 21.183C26.7017 21.1804 24.4213 20.2342 22.7396 18.5524C21.0573 16.8706 20.1112 14.5907 20.1085 12.212C20.1085 11.6615 20.5548 11.2151 21.1053 11.2151C21.6559 11.2151 22.1022 11.6615 22.1022 12.212C22.1045 14.062 22.8406 15.8355 24.1485 17.1434C25.4569 18.4513 27.2304 19.1871 29.0804 19.1893C29.6309 19.1893 30.0773 19.6356 30.0773 20.1861C30.0773 20.7366 29.6309 21.183 29.0804 21.183Z" fill="white"/>
<path d="M21.1053 13.2091C20.841 13.2091 20.5873 13.1041 20.4004 12.9171C20.2135 12.7302 20.1085 12.4766 20.1085 12.2122V5.23492C20.1085 4.68441 20.5548 4.23804 21.1053 4.23804C21.6559 4.23804 22.1022 4.68441 22.1022 5.23492V12.2122C22.1022 12.4766 21.9972 12.7302 21.8103 12.9171C21.6234 13.1041 21.3697 13.2091 21.1053 13.2091Z" fill="white"/>
<path d="M37.0863 29.1615C35.7645 29.1598 34.4975 28.6342 33.5634 27.6996C32.6288 26.765 32.1032 25.498 32.1019 24.1762C32.1019 23.6257 32.5482 23.1793 33.0988 23.1793C33.6493 23.1793 34.0956 23.6257 34.0956 24.1762C34.0965 24.9693 34.4116 25.7294 34.9724 26.2906C35.5331 26.8514 36.2933 27.1669 37.0863 27.1678C37.6368 27.1678 38.0832 27.6142 38.0832 28.1647C38.0832 28.7152 37.6368 29.1616 37.0863 29.1616L37.0863 29.1615Z" fill="white"/>
<path d="M33.068 25.1729C32.8036 25.1729 32.5499 25.0678 32.363 24.8809C32.1761 24.694 32.0711 24.4403 32.0711 24.176C32.0702 23.3829 31.7547 22.6228 31.1943 22.062C30.6336 21.5017 29.8734 21.1862 29.0804 21.1853C28.5299 21.1853 28.0835 20.7389 28.0835 20.1884C28.0835 19.6379 28.5299 19.1915 29.0804 19.1915C30.4017 19.1933 31.6687 19.7189 32.6033 20.653C33.5374 21.5876 34.0634 22.8546 34.0648 24.176C34.0648 24.4403 33.9598 24.694 33.7729 24.8809C33.5859 25.0678 33.3323 25.1728 33.0679 25.1728L33.068 25.1729Z" fill="white"/>
<path d="M13.1462 21.183C12.5957 21.183 12.1494 20.7366 12.1494 20.1861C12.1494 19.6356 12.5957 19.1893 13.1462 19.1893C14.9962 19.187 16.7698 18.4514 18.0781 17.1434C19.3861 15.8355 20.1222 14.062 20.1244 12.212C20.1244 11.6615 20.5708 11.2151 21.1213 11.2151C21.6718 11.2151 22.1182 11.6615 22.1182 12.212C22.1155 14.5907 21.1694 16.8707 19.4871 18.5524C17.8053 20.2342 15.525 21.1803 13.1462 21.183Z" fill="white"/>
<path d="M5.13928 29.1616C4.58877 29.1616 4.1424 28.7152 4.1424 28.1647C4.1424 27.6142 4.58877 27.1678 5.13928 27.1678C5.93233 27.1669 6.69248 26.8514 7.25324 26.2906C7.814 25.7294 8.12908 24.9693 8.12997 24.1762C8.12997 23.6257 8.57635 23.1793 9.12685 23.1793C9.67736 23.1793 10.1237 23.6257 10.1237 24.1762C10.1224 25.498 9.59681 26.765 8.66225 27.6996C7.72812 28.6342 6.46113 29.1597 5.13931 29.1615L5.13928 29.1616Z" fill="white"/>
<path d="M9.15869 25.1728C8.89434 25.1728 8.64066 25.0678 8.45375 24.8809C8.26684 24.694 8.1618 24.4403 8.1618 24.176C8.16314 22.8546 8.68917 21.5876 9.62329 20.653C10.5579 19.7189 11.8249 19.1934 13.1462 19.1915C13.6967 19.1915 14.1431 19.6379 14.1431 20.1884C14.1431 20.7389 13.6967 21.1853 13.1462 21.1853C12.3532 21.1862 11.593 21.5017 11.0323 22.062C10.472 22.6228 10.1564 23.3829 10.1555 24.176C10.1555 24.4403 10.0505 24.694 9.86359 24.8809C9.67668 25.0678 9.42301 25.1729 9.15865 25.1729L9.15869 25.1728Z" fill="white"/>
<path d="M6.1521 29.1615C5.88775 29.1615 5.63407 29.0565 5.44716 28.8696C5.26024 28.6827 5.15521 28.429 5.15521 28.1646V28.0342C5.15521 27.4837 5.60159 27.0374 6.1521 27.0374C6.70261 27.0374 7.14898 27.4837 7.14898 28.0342V28.1646C7.14898 28.429 7.04395 28.6827 6.85704 28.8696C6.67012 29.0565 6.41645 29.1615 6.1521 29.1615Z" fill="white"/>
<path d="M36.0587 29.1616C35.7943 29.1616 35.5406 29.0566 35.3537 28.8697C35.1668 28.6828 35.0618 28.4291 35.0618 28.1647V28.0303C35.0618 27.4798 35.5081 27.0334 36.0587 27.0334C36.6092 27.0334 37.0555 27.4798 37.0555 28.0303V28.1647C37.0555 28.4291 36.9505 28.6828 36.7636 28.8697C36.5767 29.0566 36.323 29.1616 36.0587 29.1616Z" fill="white"/>
<path d="M28.8651 8.24464C28.401 8.24419 27.9991 7.92377 27.8945 7.47206C27.4152 5.41198 26.0271 3.68082 24.1206 2.76574C22.2141 1.85066 19.9951 1.85029 18.0881 2.76529C16.1816 3.68029 14.793 5.41108 14.3137 7.47116C14.19 8.00743 13.6542 8.34209 13.1179 8.21838C12.5812 8.09422 12.2466 7.55883 12.3707 7.02212C12.9862 4.37234 14.7717 2.14536 17.2247 0.968235C19.6773 -0.208887 22.5318 -0.208887 24.9843 0.96868C27.4364 2.1458 29.2219 4.37324 29.8375 7.02302C29.9052 7.31942 29.8344 7.63049 29.6453 7.86815C29.4561 8.10579 29.1686 8.24421 28.8651 8.24465L28.8651 8.24464Z" fill="white"/>
<path d="M21.1054 54.0848C10.7217 54.0848 6.49618 47.9197 6.32187 47.6576C6.02102 47.2001 6.14563 46.5859 6.60046 46.2815C7.05529 45.9771 7.67033 46.0964 7.97878 46.5486C8.13543 46.7804 11.8457 52.0907 21.1058 52.0907C30.3705 52.0907 34.0812 46.7761 34.235 46.5504C34.543 46.0982 35.1585 45.9785 35.6133 46.2834C36.0682 46.5878 36.1928 47.2019 35.8919 47.6594C35.7166 47.9224 31.4888 54.0848 21.1061 54.0848H21.1054Z" fill="white"/>
<path d="M36.0609 64.0502H27.0889C26.8246 64.0502 26.5709 63.9452 26.384 63.7583C26.1971 63.5714 26.092 63.3177 26.092 63.0533V58.0689C26.092 57.8041 26.1971 57.5509 26.384 57.3635C26.5709 57.1766 26.8246 57.0716 27.0889 57.072H36.0609C36.3257 57.0716 36.5794 57.1766 36.7663 57.3635C36.9532 57.5509 37.0582 57.8041 37.0578 58.0689V63.0533C37.0582 63.3177 36.9532 63.5714 36.7663 63.7583C36.5794 63.9452 36.3257 64.0502 36.0609 64.0502ZM28.0858 62.0564H35.064V59.0658H28.0858V62.0564Z" fill="white"/>
<path d="M33.0702 59.0658H30.0796C29.8152 59.0658 29.5616 58.9608 29.3746 58.7739C29.1877 58.587 29.0827 58.3333 29.0827 58.069V55.0783C29.0827 54.8135 29.1877 54.5603 29.3746 54.3729C29.5616 54.186 29.8152 54.081 30.0796 54.0814H33.0702C33.335 54.081 33.5887 54.186 33.7756 54.3729C33.9625 54.5603 34.0676 54.8135 34.0671 55.0783V58.069C34.0676 58.3333 33.9625 58.587 33.7756 58.7739C33.5887 58.9608 33.335 59.0658 33.0702 59.0658ZM31.0765 57.0721H32.0734V56.0752H31.0765V57.0721Z" fill="white"/>
<path d="M44.0314 64.0502C43.7666 64.0502 43.513 63.9452 43.326 63.7583C43.1391 63.5714 43.0341 63.3177 43.0345 63.0533V31.1542H42.0377V63.0533C42.0377 63.6039 41.5913 64.0502 41.0408 64.0502C40.4903 64.0502 40.0439 63.6039 40.0439 63.0533V30.1573C40.0434 29.8929 40.1485 29.6393 40.3358 29.4523C40.5227 29.2654 40.776 29.1604 41.0408 29.1604H44.0314C44.2958 29.1604 44.5495 29.2654 44.7364 29.4523C44.9233 29.6393 45.0283 29.8929 45.0283 30.1573V63.0533C45.0283 63.3177 44.9233 63.5714 44.7364 63.7583C44.5494 63.9452 44.2958 64.0502 44.0314 64.0502Z" fill="white"/>
<path d="M54.9972 43.119H44.0314C43.7666 43.119 43.513 43.014 43.326 42.8271C43.1391 42.6402 43.0341 42.3865 43.0345 42.1222V32.1507C43.0341 31.8863 43.1391 31.6327 43.3265 31.4458C43.5134 31.2588 43.7666 31.1538 44.0314 31.1538H54.9972C55.2615 31.1538 55.5152 31.2588 55.7021 31.4458C55.889 31.6327 55.994 31.8863 55.994 32.1507V42.1222C55.994 42.3865 55.889 42.6402 55.7021 42.8271C55.5152 43.014 55.2615 43.119 54.9972 43.119ZM45.0283 41.1253H54.0003V33.1479H45.0283V41.1253Z" fill="white"/>
<path d="M62.9745 48.1058H51.0119C50.4614 48.1058 50.015 47.6594 50.015 47.1089C50.015 46.5584 50.4614 46.112 51.0119 46.112H61.5014L60.0528 42.4925C59.9584 42.2548 59.9584 41.99 60.0528 41.7524L62.0484 36.7661H62.0488C62.1467 36.52 62.3381 36.3229 62.5815 36.2179C62.825 36.1133 63.1 36.1097 63.3461 36.2085C63.5918 36.3069 63.7885 36.4991 63.8926 36.7426C63.9968 36.986 63.9994 37.261 63.9002 37.5067L62.0524 42.1227L63.9002 46.7382V46.7377C64.023 47.0453 63.9856 47.3933 63.8 47.6674C63.6149 47.9416 63.3056 48.1058 62.9745 48.1058L62.9745 48.1058Z" fill="white"/>
<path d="M51.0108 48.1058C50.6276 48.1058 50.2782 47.886 50.1122 47.5407C49.9462 47.1949 49.9934 46.785 50.2328 46.4859L54.2204 41.4997V41.4992C54.3855 41.2923 54.6262 41.1592 54.8893 41.1298C55.1523 41.1005 55.4166 41.1766 55.6236 41.3421C55.8301 41.5077 55.9627 41.7484 55.9916 42.0119C56.0206 42.2749 55.944 42.5388 55.778 42.7453L51.7905 47.7316V47.732C51.6009 47.9683 51.3138 48.1058 51.0108 48.1058Z" fill="white"/>
<path d="M62.9745 38.1324H54.9976C54.4467 38.1324 54.0007 37.6861 54.0007 37.1356C54.0007 36.585 54.4467 36.1387 54.9976 36.1387H62.9745C63.525 36.1387 63.9714 36.585 63.9714 37.1356C63.9714 37.6861 63.525 38.1324 62.9745 38.1324Z" fill="white"/>
</g>
<defs>
<clipPath id="clip0_39_112">
<rect width="64" height="64" fill="white"/>
</clipPath>
</defs>
</svg>
