<svg width="88" height="88" viewBox="0 0 88 88" fill="none" xmlns="http://www.w3.org/2000/svg">
<path d="M8.34053 42.7907C8.34053 40.5286 9.20726 36.283 15.0096 33.2624C15.4369 33.039 15.6034 32.5116 15.3806 32.0842C15.1571 31.6556 14.6297 31.4897 14.2024 31.712C7.58196 35.1587 6.59314 40.1322 6.59314 42.7906C6.59314 43.2736 6.9844 43.6649 7.46619 43.6649C7.94925 43.6643 8.3405 43.273 8.3405 42.7906L8.34053 42.7907Z" fill="white"/>
<path d="M55.3682 76.0435C55.3682 75.5598 54.9763 75.1686 54.4939 75.1686C42.977 75.1686 40.137 68.9331 37.8553 63.9234C35.5039 58.7609 33.6457 54.6814 21.9454 54.6814C21.4623 54.6814 21.071 55.0726 21.071 55.5557C21.071 56.0387 21.4623 56.4287 21.9454 56.4287C32.522 56.4287 34.011 59.6987 36.265 64.647C38.4903 69.5328 41.8522 76.9159 54.4935 76.9159C54.9779 76.9159 55.3691 76.526 55.3691 76.0435H55.3682Z" fill="white"/>
<path d="M74.7636 47.9138C71.9672 46.5881 68.7935 46.1323 65.9299 45.7689L59.0639 32.6821C58.9316 32.4307 58.6847 32.2585 58.4011 32.2211C58.1187 32.1838 57.8376 32.2876 57.6439 32.4978L52.512 38.1059C50.2246 36.3852 47.3193 34.9683 44.0176 33.9913L34.616 16.0788C34.4837 15.8275 34.2374 15.6553 33.955 15.6186C33.672 15.5825 33.3897 15.685 33.1978 15.8952L13.1638 37.7867C12.984 37.969 12.8118 38.1551 12.6535 38.3451L12.5737 38.4324C12.5282 38.4824 12.4914 38.5369 12.4585 38.5932C11.4804 39.8594 10.9619 41.2808 10.9619 42.7919C10.9619 47.6435 16.1977 52.0612 21.9468 52.0612C35.3345 52.0612 37.8295 57.5388 40.2418 62.8372C42.4165 67.6114 44.6646 72.5477 54.4961 72.5477C64.4118 72.5477 70.5465 71.2834 73.8008 68.568C76.8879 65.9887 77.1399 62.4895 77.1399 58.515C77.1399 53.0513 72.9114 51.3608 68.4423 50.5543L66.9248 47.6616C69.3173 47.9908 71.8371 48.4594 74.0162 49.4932C77.7204 51.2521 79.7603 54.4542 79.7603 58.5143C79.7603 61.69 79.7603 67.0049 75.4792 70.5793C75.1108 70.887 75.0601 71.4372 75.3684 71.8082C75.5419 72.0152 75.7894 72.1228 76.0389 72.1228C76.2377 72.1228 76.4346 72.0557 76.5992 71.9183C81.5076 67.8203 81.5076 61.9945 81.5076 58.513C81.5057 53.7431 79.1113 49.9781 74.7632 47.9141L74.7636 47.9138ZM58.091 34.5958L64.1669 46.1735C62.3727 46.2741 60.7241 45.7069 59.849 44.6243C59.1514 43.762 58.4125 43.3321 57.5952 43.308C56.3619 43.2656 55.2889 44.1722 54.0511 45.5333C53.08 46.6026 49.7594 47.1034 48.3221 46.4001C47.9385 46.212 47.834 46.0101 47.8201 45.8182L58.091 34.5958ZM51.3028 39.4271L48.4831 42.5078L45.1719 36.1965C47.5638 37.0626 49.6283 38.1736 51.3028 39.4273V39.4271ZM33.6464 17.9911L40.4289 30.9172C40.0643 31.2528 39.8205 31.4161 39.6711 31.4946C38.7828 31.9568 38.5929 31.7732 37.9256 30.538C37.7749 30.2594 37.6185 29.9707 37.4374 29.7074C36.6714 28.6007 34.6246 27.1497 29.516 29.846C28.3796 30.4462 27.601 30.6729 27.2014 30.5196C26.6722 30.3164 26.2486 29.1597 25.7111 27.6973C25.625 27.463 25.5332 27.2142 25.4376 26.9603L33.6464 17.9911ZM75.3904 58.5147C75.3904 65.1079 75.3904 70.8001 54.4941 70.8001C45.7882 70.8001 43.9542 66.7728 41.8301 62.1114C39.3116 56.5826 36.457 50.3122 21.9451 50.3122C17.1962 50.3122 12.7075 46.6579 12.7075 42.7897C12.7075 41.6324 13.1152 40.5485 13.899 39.5684L24.1104 28.4112C24.8055 30.306 25.3285 31.6743 26.5737 32.1535C27.5139 32.5138 28.637 32.2871 30.3306 31.3938C33.1486 29.9054 35.2689 29.6483 36.0007 30.705C36.1279 30.8886 36.2539 31.1216 36.3881 31.371C36.7882 32.1117 37.5207 33.4684 38.9687 33.4684C39.4036 33.4684 39.9025 33.3456 40.4774 33.0474C40.7205 32.9214 40.9813 32.7422 41.2643 32.5093L47.2295 43.878L40.6186 51.1017C40.2926 51.4581 40.3172 52.0108 40.6737 52.3362C41.0301 52.661 41.5822 52.6369 41.907 52.2811L46.5622 47.1947C46.8073 47.5031 47.1384 47.7658 47.555 47.9697C48.2602 48.3153 49.184 48.4755 50.1571 48.4755C52.1438 48.4755 54.3438 47.8114 55.346 46.7104C55.9931 45.9981 56.9206 45.0567 57.5315 45.0567H57.5479C57.8227 45.0637 58.1399 45.2891 58.4938 45.7259C59.8467 47.3985 62.4191 48.2082 65.0432 47.8398L69.7617 56.8343C69.9181 57.1319 70.222 57.3028 70.5366 57.3028C70.6727 57.3028 70.8114 57.2699 70.9412 57.2028C71.3685 56.9768 71.5318 56.4507 71.3077 56.0227L69.5014 52.578C73.1032 53.432 75.3905 54.9331 75.3905 58.5146L75.3904 58.5147Z" fill="white"/>
<path d="M33.8803 65.734C32.7477 63.249 32.043 61.7947 30.7388 60.8312C29.0934 59.6169 26.2988 59.0516 21.9456 59.0516C17.3638 59.0516 12.9448 57.3797 9.502 54.3464C9.14049 54.0267 8.5878 54.0615 8.26934 54.4224C7.9509 54.7839 7.98508 55.3372 8.34658 55.6551C12.1078 58.9713 16.9372 60.7977 21.9456 60.7977C25.7986 60.7977 28.4077 61.2808 29.7006 62.2374C30.6578 62.9445 31.277 64.2361 32.29 66.4589C33.5214 69.163 35.2087 72.8666 38.5805 75.9137C38.7476 76.065 38.9572 76.1391 39.1661 76.1391C39.4048 76.1391 39.6416 76.0429 39.8144 75.8517C40.1373 75.4952 40.1101 74.9425 39.753 74.6203C36.6483 71.8125 35.0485 68.2994 33.8804 65.7341L33.8803 65.734Z" fill="white"/>
<path d="M12.9937 29.3887C13.4223 29.1665 13.5882 28.6378 13.366 28.2105C13.1425 27.7819 12.6151 27.6166 12.1871 27.8382C3.19572 32.5181 2.22522 39.8546 2.22522 42.7916C2.22522 43.2746 2.61648 43.6659 3.09827 43.6659C3.58133 43.6659 3.97258 43.2746 3.97258 42.7916C3.97258 40.1731 4.85133 33.6261 12.9937 29.3888L12.9937 29.3887Z" fill="white"/>
<path d="M76.6356 43.9689C76.2 43.7619 75.6783 43.948 75.4719 44.3836C75.2662 44.8192 75.4517 45.3409 75.8866 45.5479C81.1236 48.0309 84.1271 52.7589 84.1271 58.5152C84.1271 58.997 84.519 59.3895 85.0021 59.3895C85.4839 59.3895 85.8751 58.9976 85.8751 58.5152C85.8751 52.0568 82.5088 46.7541 76.6356 43.969V43.9689Z" fill="white"/>
<path d="M78.2774 73.9333C73.6343 77.8098 66.2998 79.5388 54.4946 79.5388C54.0128 79.5388 53.6202 79.9288 53.6202 80.4131C53.6202 80.8949 54.0121 81.2862 54.4946 81.2862C66.7362 81.2862 74.4184 79.4319 79.3973 75.2748C79.7677 74.9671 79.8184 74.4163 79.5088 74.046C79.1985 73.6737 78.6471 73.6231 78.2767 73.9333L78.2774 73.9333Z" fill="white"/>
<path d="M40.6615 21.131H46.02C46.2036 22.4586 46.7481 23.6741 47.5521 24.6713L43.7174 28.506C43.3762 28.8473 43.3762 29.4012 43.7174 29.7412C43.8883 29.9122 44.1112 29.9983 44.3353 29.9983C44.5588 29.9983 44.7817 29.9122 44.9532 29.7412L48.8025 25.892C49.8047 26.6599 51.0134 27.1714 52.3289 27.3297V32.7972C52.3289 33.2802 52.7208 33.6702 53.2039 33.6702C53.685 33.6702 54.0769 33.2789 54.0769 32.7972V27.3297C55.3919 27.1708 56.5998 26.6599 57.6033 25.892L61.4526 29.7412C61.6236 29.9122 61.8477 29.9983 62.0705 29.9983C62.2946 29.9983 62.5188 29.9122 62.6897 29.7412C63.0303 29.4006 63.0303 28.8473 62.6897 28.506L58.8544 24.6713C59.6584 23.6729 60.2022 22.4587 60.3871 21.131H65.7438C66.2256 21.131 66.6169 20.7391 66.6169 20.2567C66.6169 19.7736 66.2256 19.3824 65.7438 19.3824H60.4182C60.2783 18.018 59.7566 16.7657 58.964 15.73L62.6885 12.006C63.0291 11.6648 63.0291 11.1108 62.6885 10.7708C62.3472 10.4296 61.7932 10.4296 61.452 10.7708L57.7445 14.4796C56.7145 13.6502 55.4546 13.0975 54.077 12.9304V7.71741C54.077 7.23434 53.6851 6.84436 53.2039 6.84436C52.7208 6.84436 52.329 7.23562 52.329 7.71741V12.9323C50.9513 13.0982 49.6915 13.6509 48.6614 14.4815L44.9539 10.7728C44.6127 10.4315 44.0587 10.4315 43.7187 10.7728C43.3775 11.1134 43.3775 11.6667 43.7187 12.008L47.4427 15.732C46.6501 16.7677 46.1296 18.02 45.9885 19.3843H40.6629C40.1811 19.3843 39.7898 19.7756 39.7898 20.2586C39.7879 20.7398 40.1792 21.131 40.6616 21.131L40.6615 21.131ZM53.2007 14.5613C56.2795 14.5613 58.7727 17.0558 58.7727 20.1313C58.7727 23.207 56.2795 25.7013 53.2007 25.7013C50.1239 25.7013 47.6313 23.2068 47.6313 20.1313C47.632 17.0556 50.1239 14.5613 53.2007 14.5613Z" fill="white"/>
</svg>
