<svg width="80" height="78" viewBox="0 0 80 78" fill="none" xmlns="http://www.w3.org/2000/svg">
<g filter="url(#filter0_d_39_57)">
<path d="M68.7123 52.1428C67.5431 51.5142 66.1482 51.4061 64.8904 51.8579L52.3255 56.3671C52.3942 56.1609 52.4435 55.9447 52.4829 55.7186C52.709 54.3431 52.3255 52.9578 51.4318 51.9166C50.5376 50.8655 49.2409 50.2663 47.8655 50.2663H40.9492C39.3477 50.2663 37.8054 49.7063 36.4892 48.6552C33.4733 46.2482 27.3725 43.075 19.3658 47.5453L19.3653 46.0126C19.3653 44.8927 18.4617 43.9886 17.3414 43.9886H10.6318C9.51194 43.9886 8.60788 44.8923 8.60788 46.0126V65.9854C8.60788 67.1053 9.51154 68.0093 10.6318 68.0093H17.3514C18.4712 68.0093 19.3753 67.1057 19.3753 65.9854V65.0619C20.9175 65.0424 24.7493 65.2781 30.2604 67.4295C33.8068 68.8244 37.5105 69.5222 41.1949 69.5222C43.2383 69.5222 45.2818 69.306 47.2858 68.8737C52.8068 67.6751 61.0595 65.2193 68.9977 60.3563C70.0488 59.7077 70.8249 58.6272 71.1099 57.3993C71.5911 55.3165 70.6187 53.165 68.7128 52.1432L68.7123 52.1428ZM17.6466 65.9849C17.6466 66.1518 17.5091 66.2893 17.3422 66.2893L10.6321 66.2897C10.4652 66.2897 10.3277 66.1522 10.3277 65.9853V46.0125C10.3277 45.8456 10.4652 45.7081 10.6321 45.7081H17.3517C17.5186 45.7081 17.6561 45.8456 17.6561 46.0125V64.2358L17.6565 65.9844L17.6466 65.9849ZM69.4394 56.9957C69.2526 57.7818 68.7614 58.4693 68.1034 58.8817C60.3716 63.6171 52.3161 66.0043 46.9229 67.1829C41.6375 68.3322 36.0965 67.8609 30.8901 65.827C25.3298 63.656 21.3904 63.3317 19.5532 63.3317H19.3764V49.529C26.9408 44.8428 32.6684 47.7999 35.4288 50.0007C37.0303 51.2779 38.995 51.9854 40.9696 51.9854H47.8859C48.7502 51.9854 49.5757 52.3685 50.1356 53.0265C50.7055 53.6946 50.9411 54.5593 50.7937 55.4431C50.6562 56.2685 50.1356 56.9759 49.4083 57.4178C49.359 57.4373 49.3102 57.4671 49.2609 57.4965C48.7892 57.752 48.2491 57.8895 47.6693 57.8895H39.7905C39.3188 57.8895 38.9357 58.2726 38.9357 58.7538C38.9357 59.2351 39.3188 59.6181 39.7905 59.6181H47.6693C48.5535 59.6181 49.3885 59.392 50.1157 58.9895L65.4711 53.4779C66.2667 53.193 67.1509 53.2617 67.927 53.6742C69.1259 54.3133 69.7452 55.6791 69.4403 56.9953L69.4394 56.9957Z" fill="white"/>
<path d="M23.9244 18.9172L27.2646 35.8936C25.4962 36.041 24.1013 37.5046 24.1013 39.3123C24.1013 41.2083 25.6436 42.7605 27.5495 42.7605H61.3343C63.2303 42.7605 64.7825 41.2183 64.7825 39.3123C64.7825 37.5046 63.3877 36.041 61.6193 35.8936L64.9594 18.9172C66.4036 18.2985 67.4058 16.8639 67.4058 15.194C67.4058 12.9638 65.5886 11.1466 63.3584 11.1466C61.1281 11.1466 59.3109 12.9638 59.3109 15.194C59.3109 16.4319 59.8808 17.5323 60.765 18.2787C60.2639 19.4184 59.5077 20.4008 58.5642 21.1475C57.1788 17.4831 53.2983 14.5753 48.3765 13.5536C48.4453 13.2492 48.4946 12.9349 48.4946 12.6106C48.4946 10.3804 46.6773 8.56311 44.4471 8.56311C42.2168 8.56311 40.3996 10.3804 40.3996 12.6106C40.3996 12.9349 40.4489 13.2492 40.5176 13.5536C35.5959 14.5753 31.7153 17.4831 30.33 21.1475C29.387 20.4007 28.6302 19.4183 28.1291 18.2787C29.0133 17.5319 29.5833 16.4415 29.5833 15.194C29.5833 12.9638 27.766 11.1466 25.5358 11.1466C23.3055 11.1466 21.4883 12.9638 21.4883 15.194C21.4684 16.8639 22.4802 18.2886 23.9243 18.9172H23.9244ZM63.0643 39.3115C63.0643 40.2645 62.2882 41.0407 61.3351 41.0407H27.5503C26.5974 41.0407 25.8212 40.2645 25.8212 39.3115C25.8212 38.3585 26.5973 37.5824 27.5503 37.5824H61.3363C62.2888 37.5824 63.065 38.3585 63.065 39.3115H63.0643ZM63.3592 12.8651C64.6459 12.8651 65.6875 13.9163 65.6875 15.1935C65.6875 16.2346 64.9901 17.1188 64.047 17.4138C64.0371 17.4138 64.0276 17.4237 64.0176 17.4237C63.8114 17.4825 63.5952 17.5318 63.3596 17.5318C62.0729 17.5318 61.0312 16.4807 61.0312 15.2035C61.0308 13.9263 62.072 12.8652 63.3591 12.8652L63.3592 12.8651ZM57.0715 22.07C56.0991 22.5219 55.0182 22.7874 53.8983 22.7874C50.0376 22.7874 46.8644 19.8991 46.432 16.1072C46.8739 15.8616 47.2574 15.5273 47.5718 15.1442C52.2873 15.9891 55.9811 18.6906 57.0716 22.07L57.0715 22.07ZM44.4382 10.2808C45.7249 10.2808 46.7665 11.3319 46.7665 12.6091C46.7665 13.0316 46.6485 13.4147 46.4522 13.7584C46.4522 13.7684 46.4422 13.7684 46.4422 13.7779C46.108 14.3577 45.5386 14.7801 44.8606 14.8977H44.8507C44.7231 14.9172 44.5856 14.9371 44.4576 14.9371H44.4382C44.2907 14.9371 44.1533 14.9176 44.0257 14.8977H44.0158C43.3378 14.7702 42.7679 14.3477 42.4341 13.7779C42.4341 13.7679 42.4242 13.7679 42.4242 13.7584C42.2279 13.4147 42.1099 13.0316 42.1099 12.6091C42.1099 11.322 43.161 10.2808 44.4382 10.2808H44.4382ZM41.3139 15.1537C41.6282 15.5468 42.0113 15.8711 42.4536 16.1167C42.0312 19.8991 38.8579 22.7874 34.9874 22.7874C33.8576 22.7874 32.7865 22.5223 31.8142 22.07C32.9046 18.6902 36.5984 15.9887 41.314 15.1538L41.3139 15.1537ZM34.9873 24.506C39.6241 24.506 43.4654 21.1167 44.1238 16.6272C44.2319 16.6372 44.3301 16.6566 44.4382 16.6566H44.4481C44.5562 16.6566 44.6544 16.6372 44.7625 16.6272C45.4205 21.117 49.2522 24.506 53.899 24.506C57.5439 24.506 60.8153 22.3545 62.3084 19.0831C62.5833 19.1618 62.8683 19.2012 63.1532 19.2206L59.8719 35.8531H29.0141L25.7328 19.2206C26.0277 19.2012 26.3126 19.1618 26.5776 19.0831C28.071 22.3645 31.3424 24.506 34.9874 24.506H34.9873ZM25.5264 12.865C26.8131 12.865 27.8547 13.9161 27.8547 15.1933C27.8547 16.4706 26.8135 17.5217 25.5264 17.5217C25.2907 17.5217 25.0646 17.4724 24.8484 17.4136C23.8954 17.1187 23.198 16.2444 23.198 15.1933C23.1885 13.9061 24.2396 12.865 25.5263 12.865L25.5264 12.865Z" fill="white"/>
<path d="M43.7491 33.5455C43.916 33.7716 44.1715 33.8992 44.4465 33.8992C44.7215 33.8992 44.977 33.7716 45.1439 33.5455L48.7396 28.6332C48.9657 28.3288 48.9657 27.9159 48.7396 27.6214L45.1439 22.7092C44.977 22.483 44.7215 22.3555 44.4465 22.3555C44.1715 22.3555 43.916 22.483 43.7491 22.7092L40.1534 27.6214C39.9272 27.9258 39.9272 28.3388 40.1534 28.6332L43.7491 33.5455ZM44.437 24.6744L46.9716 28.1325L44.437 31.5907L41.9023 28.1325L44.437 24.6744Z" fill="white"/>
</g>
<defs>
<filter id="filter0_d_39_57" x="0" y="-1" width="80" height="80" filterUnits="userSpaceOnUse" color-interpolation-filters="sRGB">
<feFlood flood-opacity="0" result="BackgroundImageFix"/>
<feColorMatrix in="SourceAlpha" type="matrix" values="0 0 0 0 0 0 0 0 0 0 0 0 0 0 0 0 0 0 127 0" result="hardAlpha"/>
<feOffset/>
<feGaussianBlur stdDeviation="4"/>
<feComposite in2="hardAlpha" operator="out"/>
<feColorMatrix type="matrix" values="0 0 0 0 0 0 0 0 0 0 0 0 0 0 0 0 0 0 0.5 0"/>
<feBlend mode="normal" in2="BackgroundImageFix" result="effect1_dropShadow_39_57"/>
<feBlend mode="normal" in="SourceGraphic" in2="effect1_dropShadow_39_57" result="shape"/>
</filter>
</defs>
</svg>
