<svg width="64" height="64" viewBox="0 0 64 64" fill="none" xmlns="http://www.w3.org/2000/svg">
<path d="M52.4411 36.5072H11.6541C11.0726 36.5072 10.6017 36.9781 10.6017 37.5596C10.6017 46.4098 17.8019 53.61 26.6521 53.61H37.4436C46.2938 53.61 53.494 46.4098 53.494 37.5596C53.494 36.9776 53.0232 36.5072 52.4412 36.5072H52.4411ZM37.4433 51.5051H26.6523C19.3165 51.5051 13.2859 45.8119 12.7459 38.6123H51.3488C50.8094 45.813 44.7781 51.5051 37.4424 51.5051H37.4433Z" fill="white"/>
<path d="M33.0463 33.2856H47.5479C47.9121 33.2856 48.2503 33.0977 48.4417 32.7883C48.6331 32.4795 48.6522 32.0923 48.4907 31.7658L33.989 2.46552C33.7722 2.02695 33.2832 1.79591 32.806 1.90752C32.3302 2.01912 31.9934 2.44349 31.9934 2.93199V32.2323C31.9929 32.8138 32.4643 33.2856 33.0453 33.2856L33.0463 33.2856ZM34.0987 7.43127L45.853 31.1792L34.0987 31.1797V7.43127Z" fill="white"/>
<path d="M16.5473 33.2857H27.607C28.1885 33.2857 28.6594 32.8148 28.6594 32.2333V9.88748C28.6594 9.3985 28.3226 8.97363 27.8468 8.86301C27.3691 8.75092 26.8806 8.98244 26.6638 9.42101L15.6035 31.7656C15.442 32.092 15.4606 32.4787 15.6525 32.7881C15.8448 33.0974 16.1831 33.2854 16.5472 33.2854L16.5473 33.2857ZM26.5541 14.387V31.1805H18.2423L26.5541 14.387Z" fill="white"/>
<path d="M54.4172 20.1573H56.5225C56.5225 17.8998 58.3595 16.0628 60.617 16.0628V13.9575C58.4755 13.9575 56.5841 15.0495 55.4702 16.706C54.3556 15.0501 52.4648 13.9575 50.3233 13.9575V16.0628C52.5804 16.0628 54.4173 17.8993 54.4173 20.1573H54.4172Z" fill="white"/>
<path d="M8.5139 10.5213H10.6192C10.6192 8.26378 12.4561 6.4268 14.7137 6.4268V4.32153C12.5722 4.32153 10.6808 5.41355 9.56684 7.06999C8.45231 5.41408 6.56151 4.32153 4.42003 4.32153V6.4268C6.67704 6.4268 8.51402 8.26378 8.51402 10.5213H8.5139Z" fill="white"/>
<path d="M58.2077 60.195C56.381 60.195 54.8949 58.709 54.8949 56.8822H52.7896C52.7896 58.7089 51.3036 60.195 49.4773 60.195C47.6506 60.195 46.1644 58.709 46.1644 56.8822H44.0592C44.0592 58.7089 42.5732 60.195 40.7468 60.195C38.9211 60.195 37.4345 58.709 37.4345 56.8822H35.3292C35.3292 58.7089 33.8432 60.195 32.0164 60.195C30.1896 60.195 28.7041 58.709 28.7041 56.8822H26.5988C26.5988 58.7089 25.1128 60.195 23.2865 60.195C21.5958 60.195 20.2131 58.917 20.0144 57.2802C20.0241 57.148 20.0349 57.0168 20.0349 56.8832H17.8695C17.8695 57.0173 17.8803 57.149 17.8901 57.2802C17.6908 58.9179 16.3086 60.195 14.6179 60.195C12.7912 60.195 11.3056 58.709 11.3056 56.8822H9.20034C9.20034 58.7089 7.71434 60.195 5.8875 60.195C4.06067 60.195 2.57516 58.709 2.57516 56.8822H0.469898C0.469898 59.8695 2.90021 62.3002 5.88687 62.3002C7.67837 62.3002 9.26475 61.4225 10.252 60.078C11.2388 61.4225 12.8252 62.3002 14.6167 62.3002C16.3905 62.3002 17.9622 61.4397 18.952 60.1186C19.9408 61.4397 21.5134 62.3002 23.2874 62.3002C25.0789 62.3002 26.6652 61.4225 27.652 60.078C28.6388 61.4225 30.2252 62.3002 32.0167 62.3002C33.8082 62.3002 35.3945 61.4225 36.3818 60.078C37.3686 61.4225 38.955 62.3002 40.7465 62.3002C42.538 62.3002 44.1244 61.4225 45.1111 60.078C46.0979 61.4225 47.6843 62.3002 49.4763 62.3002C51.2678 62.3002 52.8542 61.4225 53.841 60.078C54.8277 61.4225 56.4141 62.3002 58.2061 62.3002C61.1934 62.3002 63.6231 59.8699 63.6231 56.8822H61.5178C61.5188 58.7084 60.0327 60.195 58.207 60.195H58.2077Z" fill="white"/>
</svg>
