<svg width="88" height="88" viewBox="0 0 88 88" fill="none" xmlns="http://www.w3.org/2000/svg">
<path d="M81.4426 76.1369C78.1528 76.1369 75.0363 75.0113 72.4397 73.0203C69.8424 75.0113 66.6395 76.1369 63.4367 76.1369C60.1469 76.1369 57.0303 75.0113 54.4337 73.0203C51.8365 75.0113 48.6335 76.1369 45.4307 76.1369C42.1409 76.1369 39.0244 75.0113 36.4278 73.0203C33.8305 75.0113 30.6276 76.1369 27.4248 76.1369C24.135 76.1369 21.0184 75.0113 18.4218 73.0203C15.8246 75.0113 12.6216 76.1369 9.41883 76.1369C8.98586 76.1369 8.55289 75.7908 8.55289 75.2709C8.55289 74.8379 8.8989 74.405 9.41883 74.405C12.5354 74.405 15.4786 73.2794 17.9025 71.2884C18.2486 71.0288 18.6815 71.0288 19.0281 71.2884C21.3657 73.2794 24.3953 74.405 27.5119 74.405C30.6284 74.405 33.5716 73.2794 35.9956 71.2884C36.3416 71.0288 36.7746 71.0288 37.1212 71.2884C39.4587 73.2794 42.4883 74.405 45.6049 74.405C48.7214 74.405 51.6646 73.2794 54.0886 71.2884C54.4346 71.0288 54.8676 71.0288 55.2142 71.2884C57.5517 73.2794 60.5814 74.405 63.6979 74.405C66.8144 74.405 69.7576 73.2794 72.1816 71.2884C72.5276 71.0288 72.9606 71.0288 73.3072 71.2884C75.6447 73.2794 78.6744 74.405 81.7909 74.405C82.2239 74.405 82.6569 74.751 82.6569 75.2709C82.3084 75.7908 81.9624 76.1369 81.4431 76.1369H81.4426Z" fill="white"/>
<path d="M81.4426 68.0858C78.1528 68.0858 75.0363 66.9602 72.4397 64.9693C69.8424 66.9603 66.6395 68.0858 63.4367 68.0858C60.1469 68.0858 57.0303 66.9602 54.4337 64.9693C51.8365 66.9603 48.6335 68.0858 45.4307 68.0858C42.1409 68.0858 39.0244 66.9602 36.4278 64.9693C33.8305 66.9603 30.6276 68.0858 27.4248 68.0858C24.135 68.0858 21.0184 66.9602 18.4218 64.9693C15.8246 66.9603 12.6216 68.0858 9.41883 68.0858C8.98586 68.0858 8.55289 67.7398 8.55289 67.2199C8.55289 66.7869 8.8989 66.3539 9.41883 66.3539C12.5354 66.3539 15.4786 65.2283 17.9025 63.2374C18.2486 62.9777 18.6815 62.9777 19.0281 63.2374C21.3657 65.2284 24.3953 66.3539 27.5119 66.3539C30.6284 66.3539 33.5716 65.2283 35.9956 63.2374C36.3416 62.9777 36.7746 62.9777 37.1212 63.2374C39.4587 65.2284 42.4883 66.3539 45.6049 66.3539C48.7214 66.3539 51.6646 65.2283 54.0886 63.2374C54.4346 62.9777 54.8676 62.9777 55.2142 63.2374C57.5517 65.2284 60.5814 66.3539 63.6979 66.3539C66.8144 66.3539 69.7576 65.2283 72.1816 63.2374C72.5276 62.9777 72.9606 62.9777 73.3072 63.2374C75.6447 65.2284 78.6744 66.3539 81.7909 66.3539C82.2239 66.3539 82.6569 66.6999 82.6569 67.2199C82.3084 67.7392 81.9624 68.0858 81.4431 68.0858H81.4426Z" fill="white"/>
<path d="M75.3827 58.1303H12.706C12.4464 58.1303 12.1867 57.9569 12.0134 57.7842L0.932414 40.9897C0.759103 40.6436 0.759104 40.297 1.01877 39.951C1.19208 39.6913 1.62505 39.6044 1.97107 39.7777C2.14438 39.864 17.1208 45.9245 44.1307 45.9245C61.6178 45.9245 86.1171 39.7777 86.3769 39.7777C86.7229 39.6913 87.0695 39.864 87.2428 40.1237C87.4161 40.3834 87.4161 40.8163 87.2428 41.076L76.1618 57.784C75.9885 57.9573 75.7289 58.13 75.3823 58.13L75.3827 58.1303ZM44.0444 56.4853H74.9499L84.5592 41.9418C78.2391 43.3271 58.7613 47.5686 44.0444 47.5686C22.9213 47.5686 8.98351 43.8464 3.70273 42.1145L13.1387 56.3982L44.0442 56.3988L44.0444 56.4853Z" fill="white"/>
<path d="M86.4637 41.4222C86.0307 41.4222 85.5978 41.0762 85.5978 40.5563V35.3618C85.5978 34.9288 85.9438 34.4958 86.4637 34.4958C86.8967 34.4958 87.3297 34.8418 87.3297 35.3618V40.5563C87.3297 40.9893 86.9836 41.4222 86.4637 41.4222Z" fill="white"/>
<path d="M63.0032 46.0104C62.5702 46.0104 62.1373 45.6644 62.1373 45.1445V40.5563C62.1373 40.1233 62.4833 39.6903 63.0032 39.6903C63.4362 39.6903 63.8692 40.0364 63.8692 40.5563V45.1445C63.8686 45.5775 63.5225 46.0104 63.0032 46.0104Z" fill="white"/>
<path d="M69.496 44.8851C69.063 44.8851 68.63 44.539 68.63 44.0191V39.4309C68.63 38.9979 68.976 38.5649 69.496 38.5649C70.0153 38.5649 70.3619 38.911 70.3619 39.4309V44.0191C70.3613 44.4521 69.9289 44.8851 69.496 44.8851Z" fill="white"/>
<path d="M75.3827 43.6731C74.9498 43.6731 74.5168 43.3271 74.5168 42.8071V38.2189C74.5168 37.7859 74.8628 37.353 75.3827 37.353C75.8157 37.353 76.2487 37.699 76.2487 38.2189V42.8071C76.2487 43.3271 75.9021 43.6731 75.3827 43.6731Z" fill="white"/>
<path d="M81.1829 42.1148C80.7499 42.1148 80.317 41.7688 80.317 41.2488V36.6606C80.317 36.2277 80.663 35.7947 81.1829 35.7947C81.6159 35.7947 82.0489 36.1407 82.0489 36.6606V41.2488C82.0489 41.6818 81.7029 42.1148 81.1829 42.1148Z" fill="white"/>
<path d="M51.3163 47.309C50.8833 47.309 50.4503 46.963 50.4503 46.443V42.201C50.4503 41.768 50.71 41.422 51.143 41.335L86.377 34.4963C86.8099 34.4099 87.2429 34.6696 87.3293 35.1889C87.4156 35.6219 87.156 36.0549 86.6366 36.1412L52.0952 42.8937V46.4432C52.0952 46.9631 51.7492 47.3092 51.3162 47.3092L51.3163 47.309Z" fill="white"/>
<path d="M57.0299 46.7896C56.5969 46.7896 56.1639 46.4436 56.1639 45.9236V41.1621C56.1639 40.7291 56.51 40.2962 57.0299 40.2962C57.4629 40.2962 57.8958 40.6422 57.8958 41.1621V45.9236C57.8958 46.4436 57.5492 46.7896 57.0299 46.7896Z" fill="white"/>
<path d="M28.3752 36.1415C27.9422 36.1415 27.5092 35.7955 27.5092 35.2755V12.9404C27.5092 12.5075 27.8553 12.1615 28.2019 12.0745C28.6349 11.9881 28.9809 12.2478 29.1542 12.6808C29.1542 12.7671 32.2707 24.0213 39.4562 31.4665C39.8022 31.8125 39.8022 32.3324 39.4562 32.6784C39.1102 33.0245 38.5902 33.0245 38.2442 32.6784C33.7424 28.004 30.7992 22.1169 29.1542 17.9617V35.3623C29.1542 35.7952 28.8082 36.1419 28.3752 36.1419L28.3752 36.1415Z" fill="white"/>
<path d="M8.81037 39.7774C8.55071 39.7774 8.29104 39.6041 8.11773 39.4314C7.85807 38.9984 7.94442 38.4791 8.3774 38.2195C18.7656 31.467 24.566 15.7112 24.6526 15.5381C24.8259 15.1051 25.2588 14.8455 25.7782 15.0188C26.2111 15.1921 26.4708 15.6251 26.2975 16.1444C26.0378 16.837 20.2377 32.5927 9.32976 39.6914C9.0707 39.7772 8.89739 39.7772 8.81043 39.7772L8.81037 39.7774Z" fill="white"/>
<path d="M21.363 40.2968C20.9301 40.2968 20.584 40.0372 20.4971 39.6042C20.4107 39.1712 20.6704 38.7382 21.1897 38.6519L84.559 26.6187C84.905 26.5323 85.1653 26.705 85.4249 26.9647C85.5982 27.2243 85.6846 27.571 85.5113 27.8306L82.3948 33.8904C82.2215 34.3233 81.7021 34.4966 81.2692 34.2364C80.8362 34.0631 80.6629 33.5437 80.9231 33.1108L83.2607 28.609L21.5347 40.2967H21.362L21.363 40.2968Z" fill="white"/>
<path d="M66.5526 37.1803C66.4662 37.1803 66.3793 37.1803 66.2929 37.094C65.86 36.9206 65.6003 36.4877 65.7736 36.0553L67.7646 30.2551C67.9379 29.8221 68.3708 29.5625 68.8032 29.7358C69.2362 29.9091 69.4959 30.3421 69.3226 30.7744L67.3316 36.5746C67.2446 36.9206 66.8986 37.1803 66.5526 37.1803V37.1803Z" fill="white"/>
<path d="M52.182 39.7774C52.0956 39.7774 51.9223 39.7774 51.8359 39.6911C51.403 39.5178 51.2297 38.9984 51.403 38.5655L53.9132 32.679C54.0865 32.246 54.6058 32.0727 55.0388 32.246C55.4718 32.4194 55.6451 32.9387 55.4718 33.3716L52.9615 39.2581C52.8746 39.6041 52.528 39.7774 52.1819 39.7774L52.182 39.7774Z" fill="white"/>
<path d="M28.3752 46.8762C27.9422 46.8762 27.5092 46.5301 27.5092 46.0102V38.0458C27.5092 37.6128 27.8553 37.1798 28.3752 37.1798C28.8082 37.1798 29.2411 37.5258 29.2411 38.0458V46.0102C29.1542 46.5295 28.8082 46.8762 28.3752 46.8762Z" fill="white"/>
</svg>
